<?xml version="1.0" encoding="UTF-8"?><svg id="Layer_2" xmlns="http://www.w3.org/2000/svg" xmlns:xlink="http://www.w3.org/1999/xlink" width="170" height="36.379" viewBox="0 0 264.14 56.56"><defs><style>.cls-1{fill:#02198f;}.cls-2{fill:#fafd04;}.cls-3{fill:#fefc01;}.cls-4{fill:#fdb6ea;}.cls-5{fill:#00f901;}.cls-6{fill:#9138eb;}.cls-7{clip-path:url(#clippath);}.cls-8{fill:#541d8f;}.cls-9{fill:#009ca6;}.cls-10{fill:#79d5fe;}.cls-11{fill:#fe2601;}.cls-12{fill:#935202;}.cls-13{fill:#fefefe;}.cls-14{fill:#fc9600;}</style><clipPath id="clippath"><path class="cls-9" d="M64.39,.4h8.65V56.23h-8.65V.4ZM235.73,.4l-22.11,55.85h9.31l15.98-40.39,15.92,40.39h9.31L242.03,.4h-6.31Zm-94.93,55.85h8.65V.4h-8.65V56.25ZM122.86,.4h0l-15.84,40.03L91.24,.4h-9.57l22.11,55.85h6.28L132.16,.4h-9.3ZM45.57,35.25c-2.7,7.24-9.91,12.69-17.79,12.53-5.07,.02-9.93-2.04-13.44-5.7-7.53-7.66-7.53-19.95,0-27.62,3.51-3.65,8.37-5.71,13.44-5.7,7.95-.15,15.23,5.39,17.87,12.74h9.44C51.36,9.08,40.8-.06,27.79,0c-7.44-.01-14.56,3.02-19.7,8.39-10.77,11.07-10.77,28.71,0,39.79,5.15,5.37,12.27,8.4,19.7,8.39,12.94,.06,23.46-8.98,27.25-21.31h-9.46Zm157.94,0c-2.7,7.24-9.91,12.69-17.79,12.53-5.07,.02-9.93-2.04-13.44-5.7-7.53-7.66-7.53-19.95,0-27.62,3.51-3.65,8.37-5.71,13.44-5.7,7.95-.15,15.23,5.39,17.87,12.74h9.44C209.3,9.08,198.74-.06,185.72,0c-7.44-.01-14.56,3.02-19.7,8.39-10.77,11.07-10.77,28.71,0,39.79,5.15,5.37,12.27,8.4,19.7,8.39,12.94,.06,23.46-8.98,27.25-21.31h-9.46Z"/></clipPath></defs><g id="Layer_1-2"><g><path class="cls-9" d="M64.39,.4h8.65V56.23h-8.65V.4ZM235.73,.4l-22.11,55.85h9.31l15.98-40.39,15.92,40.39h9.31L242.03,.4h-6.31Zm-94.93,55.85h8.65V.4h-8.65V56.25ZM122.86,.4h0l-15.84,40.03L91.24,.4h-9.57l22.11,55.85h6.28L132.16,.4h-9.3ZM45.57,35.25c-2.7,7.24-9.91,12.69-17.79,12.53-5.07,.02-9.93-2.04-13.44-5.7-7.53-7.66-7.53-19.95,0-27.62,3.51-3.65,8.37-5.71,13.44-5.7,7.95-.15,15.23,5.39,17.87,12.74h9.44C51.36,9.08,40.8-.06,27.79,0c-7.44-.01-14.56,3.02-19.7,8.39-10.77,11.07-10.77,28.71,0,39.79,5.15,5.37,12.27,8.4,19.7,8.39,12.94,.06,23.46-8.98,27.25-21.31h-9.46Zm157.94,0c-2.7,7.24-9.91,12.69-17.79,12.53-5.07,.02-9.93-2.04-13.44-5.7-7.53-7.66-7.53-19.95,0-27.62,3.51-3.65,8.37-5.71,13.44-5.7,7.95-.15,15.23,5.39,17.87,12.74h9.44C209.3,9.08,198.74-.06,185.72,0c-7.44-.01-14.56,3.02-19.7,8.39-10.77,11.07-10.77,28.71,0,39.79,5.15,5.37,12.27,8.4,19.7,8.39,12.94,.06,23.46-8.98,27.25-21.31h-9.46Z"/><g class="cls-7"><g><g><rect class="cls-11" x="16.92" y="-.35" width="414.76" height="9.5"/><rect class="cls-14" x="16.92" y="9.16" width="414.76" height="9.5"/><rect class="cls-2" x="16.92" y="18.66" width="414.76" height="9.5"/><rect class="cls-5" x="16.92" y="28.17" width="414.76" height="9.5"/><rect class="cls-1" x="16.92" y="37.67" width="414.76" height="9.5"/><rect class="cls-8" x="16.92" y="47.18" width="414.76" height="9.5"/></g><g><rect x="12.51" y="4.43" width="47.43" height="47.62" transform="translate(30.58 -17.35) rotate(45)"/><rect class="cls-12" x="3.28" y="4.44" width="47.43" height="47.62" transform="translate(27.88 -10.81) rotate(45)"/><rect class="cls-10" x="-5.95" y="4.46" width="47.43" height="47.62" transform="translate(25.19 -4.28) rotate(45)"/><rect class="cls-4" x="-15.19" y="4.48" width="47.43" height="47.62" transform="translate(22.5 2.25) rotate(45)"/><rect class="cls-13" x="-24.42" y="4.5" width="47.43" height="47.62" transform="translate(19.81 8.79) rotate(45)"/><rect class="cls-3" x="-33.65" y="4.52" width="47.43" height="47.62" transform="translate(17.12 15.32) rotate(45)"/></g><path class="cls-6" d="M-4.89,45.36c-9.42,0-17.08-7.66-17.08-17.09S-14.31,11.19-4.89,11.19,12.19,18.86,12.19,28.28,4.53,45.36-4.89,45.36Zm0-31.67c-8.04,0-14.58,6.54-14.58,14.59s6.54,14.59,14.58,14.59,14.59-6.54,14.59-14.59S3.15,13.69-4.89,13.69Z"/></g></g></g></g></svg>